<svg xmlns="http://www.w3.org/2000/svg" width="39" height="51" viewBox="0 0 39 51">
    <g fill="none" fill-rule="evenodd">
        <path fill="#000" stroke="#000" stroke-width=".5" d="M9.93 11.68c-.052-.887-.902-2.22-2.005-1.929-1.468.388-2.417 1.767-1.695 3.253a2.869 2.869 0 0 0 3.963 1.249c1.194-.66 1.75-2.457 1.565-3.728-.354-2.432-3.426-3.54-5.484-2.657-2.623 1.127-2.854 5.315-1.011 7.178 2.457 2.484 7.34 1.272 7.834-2.31.275-1.996-.082-4.19-1.813-5.437-2.071-1.494-4.893-1.77-7.343-2.137l.113.427C7.31 2.46 11.717 1.202 16.165 1.6c3.667.328 7.6 1.886 9.92 4.846l.181-.436c-3.294-.033-7.485.409-8.759 3.992-.9 2.533-.437 5.89 2.563 6.528 2.742.582 5.663-1.36 5.6-4.263-.061-2.895-2.724-4.842-5.337-3.257-1.214.736-1.875 2.198-1.647 3.594.29 1.781 1.889 2.387 3.53 1.9 1.728-.512 2.348-2.42 1.133-3.78-1.224-1.371-2.914.03-3.234 1.35-.078.32.415.457.493.136.226-.931.88-1.67 1.876-1.437.796.187 1.134 1.24.979 1.936-.124.56-.61.937-1.089 1.185-.809.42-1.964.387-2.675-.204-.707-.588-.624-1.887-.375-2.67.463-1.452 2.137-2.31 3.59-2.028 1.88.365 2.523 2.734 2.136 4.367-.767 3.242-6.477 3.91-7.302.392-.34-1.453-.051-3.32.715-4.59.978-1.62 2.96-2.205 4.714-2.476 1.02-.158 2.06-.174 3.09-.164.243.003.31-.27.18-.436-2.428-3.098-6.475-4.6-10.282-4.996-4.55-.474-9.161.955-12.473 4.139-.127.122-.081.398.113.427 2.096.315 4.308.586 6.245 1.498 1.75.824 2.564 2.337 2.616 4.233.05 1.833-.57 3.446-2.364 4.148-1.376.538-3.005.326-4.227-.48-2.93-1.932-1.381-7.523 2.334-6.961 1.363.206 2.58 1.193 2.856 2.568.164.817-.17 1.647-.585 2.331-.813 1.339-2.534 1.465-3.617.37-.852-.863-.697-2.255.32-2.877.942-.575 1.975.153 2.036 1.194.02.328.53.33.511 0"/>
        <path fill="#000" stroke="#000" stroke-width=".5" d="M4.147 4.75C2.742 6.043 2.119 8.003 1.68 9.806 1.2 11.78.987 13.849 1 15.878c.035 5.22 1.475 10.49 3.876 15.104 2.465 4.737 6.382 9.248 11.101 11.83 2.182 1.192 4.624 2.808 7.207 2.056 1.786-.52 2.98-2.228 3.688-3.838 1.54-3.493 1.577-7.642 1.461-11.391-.1-3.21-.161-6.984-2.518-9.465-2.32-2.442-6.594-1.544-8.414 1.026-1.848 2.612-1.375 6.47-.654 9.379.635 2.56 1.58 5.102 2.554 7.549 1.055 2.648 2.32 5.282 4.077 7.542 1.614 2.076 3.649 3.807 6.218 4.532 2.967.839 6.071-.035 8.748-1.364.295-.147.036-.588-.258-.442-3.701 1.839-7.78 2.335-11.323-.102-3.039-2.09-4.93-5.617-6.385-8.908-1.383-3.131-2.655-6.53-3.353-9.89-.677-3.25-.772-7.79 2.597-9.598 1.865-1 4.294-.858 5.832.637 1.346 1.31 1.836 3.354 2.116 5.143.264 1.69.254 3.426.278 5.132.03 2.074-.067 4.155-.393 6.205-.326 2.045-.917 4.189-2.248 5.82-.85 1.043-2.07 1.699-3.423 1.745-1.647.056-3.237-.98-4.626-1.738-5.195-2.835-9.259-7.158-11.99-12.407-2.295-4.408-3.503-9.405-3.653-14.362-.057-1.87.166-3.765.539-5.595.384-1.886.993-4.022 2.454-5.367.243-.224-.12-.585-.362-.362"/>
        <path stroke="#4A4A4A" d="M11.799 14.97s2.198 2.302 2.403 2.353c.204.051.46.102.818-.102.358-.205 2.608-2.915 2.608-2.915"/>
    </g>
</svg>
