<svg xmlns="http://www.w3.org/2000/svg" width="24" height="31" viewBox="0 0 24 31">
    <g fill="none" fill-rule="evenodd" stroke="#07DFFF">
        <path fill="#07DFFF" stroke-width=".5" d="M6.358 7.408c-.031-.532-.541-1.332-1.203-1.157-.88.233-1.45 1.06-1.017 1.951a1.721 1.721 0 0 0 2.378.75c.716-.396 1.05-1.475.939-2.237-.213-1.459-2.056-2.124-3.29-1.594-1.574.676-1.713 3.189-.607 4.307 1.474 1.49 4.404.763 4.7-1.386.165-1.198-.05-2.514-1.087-3.263-1.243-.896-2.936-1.061-4.406-1.282l.067.257C4.786 1.875 7.43 1.12 10.1 1.36c2.2.197 4.56 1.132 5.952 2.908l.109-.262c-1.977-.02-4.491.245-5.256 2.395-.54 1.52-.262 3.535 1.538 3.917 1.645.349 3.398-.816 3.36-2.558-.037-1.737-1.634-2.905-3.202-1.954a2.15 2.15 0 0 0-.989 2.156c.175 1.07 1.134 1.433 2.118 1.14 1.037-.307 1.41-1.451.68-2.268-.734-.822-1.748.018-1.94.81-.047.193.25.274.296.082.135-.559.528-1.002 1.125-.862.478.112.68.744.588 1.161-.075.336-.366.563-.653.712-.486.252-1.18.232-1.606-.123-.424-.353-.374-1.132-.224-1.602.277-.871 1.282-1.386 2.153-1.217 1.129.22 1.514 1.64 1.282 2.62-.46 1.945-3.886 2.346-4.381.236-.204-.872-.031-1.993.429-2.754.587-.972 1.775-1.324 2.828-1.486.612-.095 1.237-.104 1.854-.098.146.001.186-.163.108-.262-1.456-1.859-3.885-2.76-6.169-2.998-2.73-.284-5.497.574-7.484 2.484-.076.073-.049.239.068.256 1.257.189 2.585.352 3.747.899 1.05.494 1.538 1.402 1.57 2.54.03 1.1-.343 2.067-1.419 2.488-.825.323-1.803.196-2.536-.287-1.758-1.16-.829-4.515 1.4-4.177.818.123 1.549.716 1.714 1.54.098.49-.102.989-.351 1.4-.488.802-1.52.878-2.17.221a1.1 1.1 0 0 1 .192-1.726c.565-.345 1.185.092 1.221.717.012.196.319.197.307 0"/>
        <path fill="#07DFFF" stroke-width=".5" d="M2.888 3.25c-.843.776-1.217 1.952-1.48 3.034A15.102 15.102 0 0 0 1 9.927c.022 3.132.885 6.294 2.326 9.062 1.48 2.842 3.83 5.55 6.66 7.098 1.31.716 2.775 1.685 4.325 1.234 1.072-.312 1.787-1.337 2.213-2.303.923-2.096.946-4.585.876-6.835-.06-1.925-.096-4.19-1.51-5.679-1.392-1.465-3.957-.926-5.049.616-1.109 1.567-.825 3.882-.392 5.627.38 1.536.948 3.062 1.532 4.53.633 1.589 1.392 3.169 2.446 4.525.969 1.246 2.19 2.284 3.731 2.72 1.78.502 3.643-.022 5.249-.82.177-.087.022-.352-.155-.264-2.22 1.103-4.668 1.4-6.794-.062-1.823-1.254-2.958-3.37-3.83-5.344-.83-1.879-1.593-3.919-2.013-5.934-.405-1.95-.463-4.675 1.559-5.76 1.119-.6 2.576-.514 3.499.383.807.785 1.102 2.013 1.27 3.086.158 1.014.152 2.055.167 3.08.017 1.243-.04 2.492-.236 3.722-.196 1.227-.55 2.513-1.349 3.492-.51.626-1.242 1.02-2.054 1.047-.988.034-1.942-.588-2.775-1.043-3.117-1.7-5.556-4.295-7.195-7.444-1.377-2.645-2.101-5.643-2.192-8.617-.034-1.123.1-2.26.324-3.357.23-1.132.596-2.413 1.472-3.22.146-.135-.072-.351-.217-.217"/>
        <path d="M7.48 9.382s1.318 1.381 1.441 1.412c.123.03.276.061.491-.062.215-.122 1.565-1.748 1.565-1.748"/>
    </g>
</svg>
