<svg xmlns="http://www.w3.org/2000/svg" xmlns:xlink="http://www.w3.org/1999/xlink" width="47" height="42" viewBox="0 0 47 42">
    <defs>
        <path id="a" d="M13 22h8v27h-8z"/>
        <mask id="b" width="8" height="27" x="0" y="0" fill="#fff">
            <use xlink:href="#a"/>
        </mask>
    </defs>
    <g fill="none" fill-rule="evenodd" transform="matrix(-1 0 0 1 46 -9)">
        <use fill="#F5F5F5" stroke="#FBC02D" stroke-width="4" mask="url(#b)" xlink:href="#a"/>
        <path fill="#4A4A4A" stroke="#4A4A4A" stroke-linecap="round" stroke-linejoin="round" stroke-width=".5" d="M44.527 48.492h-.755v-10.57h-9.054v10.57H32.45v-17.36h-9.054v17.36H9.81V19.055H.756v29.437a.753.753 0 1 0 0 1.507h43.771a.754.754 0 1 0 0-1.507zm-42.265 0h6.04V20.566h-6.04v27.926zm22.642 0h6.04v-15.85h-6.04v15.85zm11.32 0h6.041v-9.058h-6.04v9.058zM38.88 27.46L10.97 12.622l1.846 3.704a.757.757 0 0 1-.34 1.013.754.754 0 0 1-.977-.276l-.036-.065-2.892-5.81c-.008-.013-.003-.025-.008-.034a.77.77 0 0 1-.054-.176c0-.008-.012-.018-.01-.028l.002-.027-.004-.006c.002-.01-.002-.017-.004-.029a.72.72 0 0 1 .059-.315c.01-.027.015-.052.029-.078.01-.02.025-.029.038-.05.016-.023.027-.048.043-.07.02-.023.046-.039.068-.06a.454.454 0 0 1 .093-.08c.023-.019.042-.036.07-.048.006-.004.01-.011.02-.017.017-.006.039-.007.056-.013a.574.574 0 0 1 .12-.037c.024-.005.039-.015.059-.018l6.438-.852a.753.753 0 1 1 .195 1.495l-4.102.543 27.91 14.837a.76.76 0 0 1 .312 1.022.754.754 0 0 1-1.022.313z"/>
    </g>
</svg>
