<svg xmlns="http://www.w3.org/2000/svg" width="52" height="52" viewBox="0 0 52 52">
    <g fill="none" fill-rule="evenodd" transform="translate(1 1)">
        <path fill="#FFF" fill-rule="nonzero" d="M18.846 24.128a1.052 1.052 0 0 0-1.487 1.487l4.846 4.847c.205.205.462.307.744.307H23c.282-.025.564-.154.77-.384l12.127-14.539a1.082 1.082 0 0 0-.128-1.487 1.082 1.082 0 0 0-1.487.128l-11.41 13.667-4.026-4.026z"/>
        <path fill="#FFF" fill-rule="nonzero" d="M32.846 12.385c-5.897-3.693-13.461-2.82-18.384 2.102-5.795 5.795-5.795 15.257 0 21.051a14.857 14.857 0 0 0 21.025 0C40.436 30.59 41.282 23 37.564 17.103a1.042 1.042 0 1 0-1.77 1.103C39 23.281 38.257 29.794 34 34.05c-4.974 4.975-13.103 4.975-18.077 0-4.974-4.974-4.974-13.102 0-18.077 4.256-4.23 10.744-4.974 15.82-1.82a1.042 1.042 0 1 0 1.103-1.77z"/>
        <circle cx="25" cy="25" r="25" stroke="#FFF" stroke-width="2"/>
    </g>
</svg>
