<svg xmlns="http://www.w3.org/2000/svg" xmlns:xlink="http://www.w3.org/1999/xlink" width="40" height="43" viewBox="0 0 40 43">
    <defs>
        <path id="a" d="M.007.207V43h39.782V.207H.007z"/>
    </defs>
    <g fill="none" fill-rule="evenodd">
        <mask id="b" fill="#fff">
            <use xlink:href="#a"/>
        </mask>
        <path fill="#FBC02D" d="M14.858 30.147a1.221 1.221 0 0 0-1.715.246 10.619 10.619 0 0 1-8.541 4.256H1.225A1.22 1.22 0 0 0 0 35.875c0 .68.545 1.225 1.225 1.225h3.386c2.097 0 4.103-.48 5.954-1.425a13.142 13.142 0 0 0 4.538-3.812c.4-.535.3-1.307-.245-1.716zM18.317 12.92a1.237 1.237 0 0 0 1.724-.217 10.615 10.615 0 0 1 8.441-4.14h7.125l-3.803 3.804a1.221 1.221 0 0 0 0 1.733c.236.236.554.363.863.363.308 0 .626-.117.862-.363l5.9-5.9a1.221 1.221 0 0 0 0-1.733l-5.9-5.9a1.222 1.222 0 0 0-1.734 0 1.222 1.222 0 0 0 0 1.734l3.803 3.803h-7.125c-4.084 0-7.87 1.852-10.383 5.092-.4.544-.31 1.307.227 1.724z" mask="url(#b)"/>
        <path fill="#4A4A4A" d="M33.538 29.113a1.222 1.222 0 0 0-1.734 0 1.221 1.221 0 0 0 0 1.733l3.803 3.803h-7.125c-5.89 0-10.683-4.792-10.683-10.682v-4.72c0-7.243-5.89-13.134-13.134-13.134H1.28A1.22 1.22 0 0 0 .054 7.338c0 .681.545 1.226 1.226 1.226h3.385c5.89 0 10.684 4.792 10.684 10.683v4.72c0 7.243 5.89 13.133 13.133 13.133h7.125l-3.803 3.803a1.221 1.221 0 0 0 0 1.734c.236.236.554.363.863.363.308 0 .626-.118.862-.363l5.9-5.9a1.221 1.221 0 0 0 0-1.734l-5.891-5.89z" mask="url(#b)"/>
    </g>
</svg>
