<svg xmlns="http://www.w3.org/2000/svg" xmlns:xlink="http://www.w3.org/1999/xlink" width="46" height="46" viewBox="0 0 46 46">
    <defs>
        <path id="a" d="M.06.4v45.602h45.542V.4H.06z"/>
    </defs>
    <g fill="none" fill-rule="evenodd">
        <g>
            <mask id="b" fill="#fff">
                <use xlink:href="#a"/>
            </mask>
            <path fill="#4A4A4A" stroke="#4A4A4A" stroke-width=".5" d="M39.344 31.201l-4.477 6.429-3.16-2.589a.799.799 0 1 0-1.016 1.234l3.832 3.145a.79.79 0 0 0 .504.179c.039 0 .075 0 .11-.008a.809.809 0 0 0 .551-.336l4.968-7.14a.797.797 0 0 0-.199-1.113.798.798 0 0 0-1.113.199z" mask="url(#b)"/>
            <path fill="#4A4A4A" stroke="#4A4A4A" stroke-width=".5" d="M43.199 28.963V10.142C43.199 4.771 38.832.4 33.461.4H9.742C4.371.4 0 4.771 0 10.142v23.719c0 5.371 4.371 9.738 9.742 9.738h18.82a10.352 10.352 0 0 0 6.637 2.403c5.735 0 10.403-4.668 10.403-10.403 0-2.519-.903-4.832-2.403-6.636zM9.742 42.002c-4.488 0-8.14-3.653-8.14-8.141V10.142c0-4.492 3.652-8.14 8.14-8.14h23.719c4.488 0 8.141 3.648 8.141 8.14v17.274a5.414 5.414 0 0 0-.188-.133 9.25 9.25 0 0 0-.512-.371c-.015-.012-.039-.02-.054-.032a10.202 10.202 0 0 0-1.293-.71c-.063-.028-.121-.063-.184-.09-.176-.075-.355-.141-.535-.211a11.878 11.878 0 0 0-.344-.125 10.49 10.49 0 0 0-.933-.262c-.153-.035-.305-.07-.461-.102a15.152 15.152 0 0 0-.555-.082c-.125-.015-.25-.035-.375-.05-.32-.028-.645-.047-.969-.047-4.906 0-9.019 3.422-10.109 8h-3.488a.799.799 0 1 0 0 1.597h3.238c-.02.266-.039.532-.039.801 0 .324.019.649.047.969.011.125.031.25.05.375.024.184.047.371.082.551.032.156.063.312.102.465.031.144.07.285.109.425.047.172.098.344.153.508.039.113.082.227.121.336.07.184.137.367.215.547.023.051.054.102.078.156.211.465.457.91.734 1.336.008.012.012.024.02.035.117.176.242.344.371.512l.129.188H9.742zM35.199 44.4a8.75 8.75 0 0 1-5.871-2.266 7.885 7.885 0 0 1-.555-.543c-.039-.039-.074-.082-.113-.125a7.889 7.889 0 0 1-.476-.578c-.036-.043-.071-.09-.106-.136a10.178 10.178 0 0 1-.414-.629c-.027-.047-.055-.086-.078-.133a7.778 7.778 0 0 1-.363-.695 2.322 2.322 0 0 0-.055-.114 8.968 8.968 0 0 1-.293-.754c-.012-.031-.027-.062-.035-.093a9.48 9.48 0 0 1-.219-.797c-.008-.032-.019-.063-.023-.094a9.125 9.125 0 0 1-.133-.805c-.004-.035-.012-.074-.016-.113a9.138 9.138 0 0 1-.051-.926c0-4.851 3.95-8.801 8.801-8.801.313 0 .621.02.93.051.035.004.07.012.105.02.274.031.543.074.809.129.031.007.062.019.09.023.273.063.539.133.801.219l.089.035c.258.086.512.188.762.297.035.016.07.035.106.051.238.113.472.234.703.363.043.023.082.051.125.078a8.237 8.237 0 0 1 .765.516c.204.152.399.316.586.484.039.035.082.07.121.109.188.176.375.364.551.563A8.75 8.75 0 0 1 44 35.599c0 4.852-3.949 8.801-8.801 8.801z" mask="url(#b)"/>
        </g>
        <path fill="#4A4A4A" stroke="#4A4A4A" stroke-width=".5" d="M21.602 11.599H36a.8.8 0 1 0 0-1.597H21.602a.798.798 0 1 0 0 1.597zM21.602 22.798H36a.799.799 0 1 0 0-1.597H21.602a.799.799 0 1 0 0 1.597zM15.336 6.279l-5 5.832-3.055-2.293a.799.799 0 1 0-.961 1.277l3.657 2.743a.802.802 0 0 0 1.089-.118l5.485-6.402a.798.798 0 1 0-1.215-1.039z"/>
        <path fill="#FBC02D" stroke="#FBC02D" stroke-width=".5" d="M15.336 17.478l-5 5.832-3.055-2.293a.8.8 0 0 0-.961 1.278l3.657 2.746c.144.105.312.16.48.16a.808.808 0 0 0 .609-.281l5.485-6.399a.803.803 0 0 0-.086-1.129.803.803 0 0 0-1.129.086z"/>
        <path fill="#4A4A4A" stroke="#4A4A4A" stroke-width=".5" d="M15.336 29.478l-5 5.832-3.055-2.293a.8.8 0 0 0-.961 1.278l3.657 2.746c.144.105.312.16.48.16a.808.808 0 0 0 .609-.281l5.485-6.399a.803.803 0 0 0-.086-1.129.803.803 0 0 0-1.129.086z"/>
    </g>
</svg>
