<svg xmlns="http://www.w3.org/2000/svg" id="i-m" width="25" height="22" viewBox="0 0 25 22">
    <g fill="none" fill-rule="evenodd" stroke="#979797">
        <path d="M16.404 1.293c-.116-.058-.21 0-.21.13V17.4l6.946 3.498c.346.175.629-.002.629-.392V5.127a.204.204 0 0 0-.111-.18l-7.254-3.654"/>
        <path d="M8.619 13.416L16.107 1.39a.265.265 0 0 1 .335-.094l7.232 3.575c.09.044.123.155.07.24L16.23 17.178 8.62 13.416"/>
        <path d="M1.536 1.374c-.473-.232-.633-.06-.356.383L8.435 13.36l7.76 3.818L8.484 4.85a.332.332 0 0 0-.136-.123L1.536 1.374"/>
        <path d="M8.619 20.504c0 .392-.283.569-.63.394l-6.525-3.3a.843.843 0 0 1-.42-.687V1.578c0-.26.189-.379.42-.262l7.062 3.572a.17.17 0 0 1 .093.152v15.464"/>
    </g>
</svg>
