<svg xmlns="http://www.w3.org/2000/svg" width="52" height="52" viewBox="0 0 52 52">
    <g fill="none" fill-rule="evenodd" transform="translate(1 1)">
        <path fill="#FFF" fill-rule="nonzero" d="M35.853 13.07h-22.75A2.105 2.105 0 0 0 11 15.172v15.91c0 1.16.943 2.103 2.102 2.103h10.581v1.562h-2.78v1.588h7.15v-1.588h-2.781v-1.562h10.581a2.105 2.105 0 0 0 2.102-2.102V15.172c0-1.16-.943-2.102-2.102-2.102zm-22.75 1.588h22.75c.283 0 .514.23.514.514v12.661H12.588V15.172c0-.284.23-.514.514-.514zm22.75 16.938h-22.75a.514.514 0 0 1-.515-.513v-1.661h23.779v1.66c0 .284-.23.514-.514.514z"/>
        <circle cx="25" cy="25" r="25" stroke="#FFF" stroke-width="2"/>
    </g>
</svg>
