<svg xmlns="http://www.w3.org/2000/svg" width="52" height="52" viewBox="0 0 52 52">
    <g fill="none" fill-rule="evenodd" transform="translate(1 1)">
        <path fill="#FFF" fill-rule="nonzero" d="M31.297 10H18.703a2.206 2.206 0 0 0-2.202 2.203v25.594c0 1.215.988 2.203 2.203 2.203h12.594a2.206 2.206 0 0 0 2.203-2.203V12.203A2.206 2.206 0 0 0 31.297 10zM17.5 14h15v19h-15V14zm1.203-3h12.594c.663 0 1.203.54 1.203 1.203V13h-15v-.797c0-.663.54-1.203 1.203-1.203zm12.595 28H18.703c-.663 0-1.203-.54-1.203-1.203V34h15v3.797c0 .664-.54 1.203-1.203 1.203z"/>
        <path fill="#FFF" fill-rule="nonzero" d="M25 34.5c-1.103 0-2 .897-2 2s.897 2 2 2 2-.897 2-2-.897-2-2-2zm0 3a1.001 1.001 0 0 1 0-2 1.001 1.001 0 0 1 0 2zM23 12.5h2a.5.5 0 1 0 0-1h-2a.5.5 0 1 0 0 1zM26.5 12.5h.5a.5.5 0 1 0 0-1h-.5a.5.5 0 1 0 0 1zM38.306 12.284a.5.5 0 1 0-.707.707 4.797 4.797 0 0 1 0 6.776.5.5 0 1 0 .707.707 5.798 5.798 0 0 0 0-8.19z"/>
        <path fill="#FFF" fill-rule="nonzero" d="M36.2 13.422a.5.5 0 1 0-.707.707c.619.619.96 1.443.96 2.32 0 .877-.341 1.7-.96 2.319a.5.5 0 1 0 .707.707 4.25 4.25 0 0 0 1.252-3.026c0-1.144-.444-2.22-1.252-3.027zM12.401 12.992a.5.5 0 1 0-.707-.708 5.798 5.798 0 0 0 0 8.19.499.499 0 0 0 .707 0 .5.5 0 0 0 0-.707 4.796 4.796 0 0 1 0-6.775z"/>
        <path fill="#FFF" fill-rule="nonzero" d="M14.507 13.284a.5.5 0 0 0-.707 0 4.25 4.25 0 0 0-1.253 3.027c0 1.143.445 2.218 1.252 3.026a.499.499 0 0 0 .708 0 .5.5 0 0 0 0-.707 3.258 3.258 0 0 1-.96-2.32c0-.876.34-1.7.96-2.318a.5.5 0 0 0 0-.708z"/>
        <circle cx="25" cy="25" r="25" stroke="#FFF" stroke-width="2"/>
    </g>
</svg>
