<svg xmlns="http://www.w3.org/2000/svg" id="i-tw" width="19" height="17" viewBox="0 0 19 17">
    <path fill="none" fill-rule="evenodd" stroke="#979797" d="M17.712 1.277a7.42 7.42 0 0 1-2.375.918A3.704 3.704 0 0 0 12.61 1c-2.062 0-3.736 1.695-3.736 3.787 0 .297.033.585.097.862-3.106-.158-5.859-1.664-7.703-3.958a3.823 3.823 0 0 0-.506 1.906 3.8 3.8 0 0 0 1.663 3.152A3.705 3.705 0 0 1 .73 6.276v.047c0 1.835 1.288 3.366 2.999 3.713a3.598 3.598 0 0 1-.985.133c-.24 0-.475-.023-.703-.067.476 1.504 1.854 2.599 3.49 2.628A7.433 7.433 0 0 1 0 14.3 10.491 10.491 0 0 0 5.728 16c6.874 0 10.633-5.77 10.633-10.773 0-.165-.004-.33-.01-.491a7.619 7.619 0 0 0 1.863-1.96c-.67.3-1.39.505-2.145.596a3.786 3.786 0 0 0 1.643-2.095z"/>
</svg>
